<?xml version="1.0" encoding="UTF-8" standalone="no"?>
<!-- Generator: $$$/GeneralStr/196=Adobe Illustrator 27.6.0, SVG Export Plug-In . SVG Version: 6.00 Build 0)  -->

<svg
   version="1.1"
   id="Text"
   x="0px"
   y="0px"
   viewBox="0 0 515.49305 118.7"
   xml:space="preserve"
   sodipodi:docname="logo.svg"
   width="515.49304"
   height="118.7"
   xmlns:inkscape="http://www.inkscape.org/namespaces/inkscape"
   xmlns:sodipodi="http://sodipodi.sourceforge.net/DTD/sodipodi-0.dtd"
   xmlns="http://www.w3.org/2000/svg"
   xmlns:svg="http://www.w3.org/2000/svg"><defs
   id="defs5" /><sodipodi:namedview
   id="namedview5"
   pagecolor="#505050"
   bordercolor="#eeeeee"
   borderopacity="1"
   inkscape:showpageshadow="0"
   inkscape:pageopacity="0"
   inkscape:pagecheckerboard="0"
   inkscape:deskcolor="#505050" />&#10;<style
   type="text/css"
   id="style1">&#10;	.st0{fill:#4E4B49;}&#10;	.st1{fill:#FF5600;}&#10;</style>&#10;<path
   class="st0"
   d="m 487.89304,61 26.5,-36.4 h -18.3 l -17.3,24.7 -17.3,-24.7 h -18.7 l 26.5,36.9 -27.5,38 h 18.3 l 18.3,-26.2 18.4,26.2 h 18.7 z"
   id="path1"
   inkscape:export-filename="logo2.svg"
   inkscape:export-xdpi="96"
   inkscape:export-ydpi="96" />&#10;<path
   class="st0"
   d="m 442.59304,62.1 c 0,21.5 -17.5,39.1 -39.1,39.1 -21.5,0 -39.1,-17.5 -39.1,-39.1 0,-21.5 17.5,-39.1 39.1,-39.1 21.6,0 39.1,17.5 39.1,39.1 z m -15.2,-0.1 c 0,-13.1 -10.7,-23.8 -23.8,-23.8 -13.1,0 -23.8,10.7 -23.8,23.8 0,13.1 10.7,23.8 23.8,23.8 13.1,0 23.8,-10.6 23.8,-23.8 z"
   id="path2" />&#10;<polygon
   class="st0"
   points="372,137.6 402.6,62.7 384.6,62.7 364.3,117.1 344.2,62.7 325.7,62.7 356.5,137.6 "
   id="polygon2"
   transform="translate(-37.806953,-38.1)" />&#10;<rect
   x="259.99304"
   y="24.6"
   class="st0"
   width="17.200001"
   height="74.900002"
   id="rect2" />&#10;<path
   class="st0"
   d="m 208.29304,58.7 v 40.7 h 17.2 V 58.7 c 0,-0.4 0,-1.1 0.1,-2 0.5,-4.5 3.3,-13.8 16.9,-14.9 0.9,-0.1 1.8,-0.1 2.7,-0.1 V 24.6 c -0.6,0 -1.2,0 -1.7,0 -23.6,0.8 -34.6,17.2 -35.2,33 0,0.3 0,0.7 0,1.1 z"
   id="path3" />&#10;<path
   class="st0"
   d="m 196.69304,63.4 c 0,1.6 -0.1,3 -0.3,4.7 h -55 c 2,12.2 10.5,19 21.6,19 8.4,0 14.3,-3.1 20.3,-8.9 l 10.1,8.9 c -7.1,8.5 -16.9,14 -30.6,14 -21.7,0 -38.4,-15.7 -38.4,-39 0,-21.6 15.2,-39.1 36.6,-39.1 23.6,0 35.7,18.7 35.7,40.4 z m -17.1,-6.7 c -1.1,-11.1 -7.7,-19.7 -19,-19.7 -10.5,0 -17.9,8.1 -19.4,19.7 z"
   id="path4" />&#10;<path
   class="st1"
   d="m 104.09304,24.6 -24.399993,65.8 -0.2,0.5 c -2,5.3 -6.8,9.2 -12.6,10 -0.7,0.1 -1.4,0.2 -2.2,0.2 -0.8,0 -1.5,-0.1 -2.3,-0.2 -5.6,-0.8 -10.3,-4.6 -12.4,-9.7 l -0.4,-1.1 -24.3,-65.5 h 20.2 l 19.2,51.7 19.1,-51.7 v 0 l 1.8,-5 c 3.1,-8.1 -7.8,-19.6 -41.2,-19.6 -33.4,0 -45.6000003,14 -44.30000036,30.1 C 1.3930467,46.1 19.993047,83 29.393047,97.5 c 9.2,14.1 21.8,21.2 34.7,21.2 12.9,0 26.6,-6.5 34.5,-26.7 5.999993,-15.3 25.799993,-67.5 25.799993,-67.5 h -20.3 z"
   id="path5" />&#10;</svg>
